<svg width="302" height="302" viewBox="0 0 302 302" fill="none" xmlns="http://www.w3.org/2000/svg">
<path d="M34.4625 213.301C40.1816 204.7 43.7482 199.897 50.4913 191.336C56.4788 183.423 60.1871 179.648 67.3116 173.922C72.1053 170.727 76.1138 169.751 85.1214 169.172C98.1576 168.139 105.598 167.614 119.158 166.798L155.767 160.465C159.792 159.946 161.511 159.909 164.078 160.069C169.937 163.389 170.572 168.845 165.859 175.703C162.388 181.35 158.471 183.969 147.456 187.378L128.854 192.721C134.226 194.349 140.202 194.859 151.413 195.689C160.343 195.527 164.848 194.876 171.994 192.721L208.009 174.317L208.116 174.28C212.66 172.693 214.786 171.95 221.07 172.932C227.402 173.922 229.609 178.144 228.391 183.42C216.273 196.205 206.373 201.607 191.189 211.124C179.381 217.734 172.891 220.433 161.506 223.789C152.936 225.364 134.498 225.885 100.557 226.361C92.6844 229.443 88.8439 231.81 82.5489 236.652L69.8842 247.931L34.4625 213.301Z" fill="#91DC5B"/>
<path d="M96.2031 77.5508C96.3607 81.461 96.4844 83.4456 96.7968 86.4557C97.7435 92.1389 98.5789 95.3398 100.754 101.099C103.003 107.21 104.679 110.391 108.274 115.743C111.245 120.154 113.19 122.52 117.377 126.429C121.661 131.077 124.384 133.27 129.448 136.917C132.46 139.293 134.553 140.409 138.551 142.26C141.749 143.827 143.637 144.55 147.258 145.426C149.897 145.942 151.582 146.032 154.975 145.822C156.821 145.87 157.094 145.351 156.756 143.843L151.216 133.355L143.102 121.284L135.978 112.379L128.459 104.265L126.282 102.287L131.427 105.849L138.353 111.587C141.461 114.516 143.012 116.162 145.675 119.107C149.198 122.991 151.057 125.415 154.184 129.991C157.261 133.949 158.778 136.215 161.308 140.281C162.481 141.238 163.015 141.18 163.682 139.687C164.297 135.396 164.305 132.843 163.682 128.012C163.048 124.505 162.624 122.528 161.308 118.909C159.612 114.865 158.516 112.58 155.965 108.421C154.069 105.41 152.78 103.582 149.83 99.912C146.101 95.803 143.942 93.5738 139.342 90.4134C135.478 87.7433 133.031 86.428 128.063 84.4768C123.109 82.4329 120.139 81.5086 114.607 80.1233C107.938 78.3936 103.871 77.8877 96.2031 77.5508Z" fill="#91DC5B"/>
<path d="M165.859 117.722C165.513 113.232 165.588 110.726 166.057 106.244C166.877 101.554 167.609 99.0624 169.223 94.7667C172.562 87.6103 174.802 83.9152 179.513 77.7484C183.531 73.2979 185.884 71.0878 190.199 67.4583C194.286 64.6686 196.706 63.3186 201.281 61.1259C206.916 58.4992 210.175 57.411 216.122 55.9809C222.26 54.6526 225.844 54.0304 232.547 53.2105H236.703C236.706 57.3658 236.578 59.7043 235.911 63.8964C234.872 69.5327 233.981 72.6899 231.755 78.3421C229.261 84.5362 227.511 87.9174 223.84 93.7772C219.899 98.9926 217.495 101.735 212.758 106.244C209.117 110.204 205.62 112.948 201.479 115.941C197.338 118.934 192.995 121.016 188.023 122.867L180.305 124.845H175.358C173.701 124.816 173.288 124.329 173.181 122.867C176.114 116.323 178.128 112.69 182.284 106.244C186.259 100.243 188.693 97.051 193.365 91.6005L201.677 82.4977L204.843 78.9357C197.541 84.3078 193.832 87.6485 187.627 93.9751C182.561 99.2776 179.792 102.651 174.962 109.212C172.713 112.439 171.521 114.201 170.015 116.93C169.313 118.118 168.964 118.665 168.432 119.305C166.987 119.59 166.389 119.315 165.859 117.722Z" fill="#91DC5B"/>
<path d="M165.266 89.6216C165.557 86.8203 165.491 85.0233 165.266 81.7062C165.001 79.8068 164.745 78.7736 164.078 76.9569C162.768 73.3115 161.763 71.3275 159.725 67.8541C157.372 64.5215 155.864 62.7094 152.997 59.5429C149.102 56.4508 146.696 54.8553 141.717 52.4189C136.791 50.7128 133.931 49.9528 128.657 48.857C125.684 48.3004 124 48.0935 120.939 48.0654C120.304 48.1599 120.149 48.3328 120.147 48.857C120.23 50.7881 120.339 51.5356 120.543 52.8147C121.07 56.3488 121.534 58.2402 122.522 61.5217C123.85 65.1266 124.691 67.0942 126.48 70.4266C128.829 74.0272 130.272 75.9869 133.208 79.3315C136.873 83.4373 139.039 85.3774 143.102 88.0385C146.649 90.5746 148.686 91.5997 152.403 92.7878L158.933 93.7772C160.331 93.7148 160.743 93.3832 160.516 91.9963C158.777 88.1293 157.679 86.0363 155.371 82.4977C152.253 77.7526 150.355 75.2321 146.664 71.0203L140.925 65.0837C144.115 67.0317 145.799 68.2416 148.445 70.8224C151.625 74.0132 153.305 75.88 156.163 79.3315C158.365 82.083 159.4 83.6041 160.912 85.8618L163.485 89.6216C164.145 90.3114 164.533 90.3596 165.266 89.6216Z" fill="#91DC5B"/>
<circle cx="151" cy="151" r="149.5" stroke="#91DC5B" stroke-width="3"/>
</svg>
